<?xml version="1.0" encoding="UTF-8" standalone="no"?>
<!-- Created with Inkscape (http://www.inkscape.org/) -->

<svg
   xmlns:dc="http://purl.org/dc/elements/1.1/"
   xmlns:cc="http://creativecommons.org/ns#"
   xmlns:rdf="http://www.w3.org/1999/02/22-rdf-syntax-ns#"
   xmlns:svg="http://www.w3.org/2000/svg"
   xmlns="http://www.w3.org/2000/svg"
   xmlns:sodipodi="http://sodipodi.sourceforge.net/DTD/sodipodi-0.dtd"
   xmlns:inkscape="http://www.inkscape.org/namespaces/inkscape"
   width="744.09448819"
   height="1052.3622047"
   id="svg2"
   version="1.1"
   inkscape:version="0.48.3.1 r9886"
   sodipodi:docname="New document 1">
  <defs
     id="defs4" />
  <sodipodi:namedview
     id="base"
     pagecolor="#ffffff"
     bordercolor="#666666"
     borderopacity="1.0"
     inkscape:pageopacity="0.0"
     inkscape:pageshadow="2"
     inkscape:zoom="8.6576515"
     inkscape:cx="385.65353"
     inkscape:cy="521.41802"
     inkscape:document-units="px"
     inkscape:current-layer="layer1"
     showgrid="false"
     inkscape:window-width="1535"
     inkscape:window-height="876"
     inkscape:window-x="65"
     inkscape:window-y="24"
     inkscape:window-maximized="1" />
  <metadata
     id="metadata7">
    <rdf:RDF>
      <cc:Work
         rdf:about="">
        <dc:format>image/svg+xml</dc:format>
        <dc:type
           rdf:resource="http://purl.org/dc/dcmitype/StillImage" />
        <dc:title></dc:title>
      </cc:Work>
    </rdf:RDF>
  </metadata>
  <g
     inkscape:label="Layer 1"
     inkscape:groupmode="layer"
     id="layer1">
    <path
       style="fill:#ffa9ff;fill-opacity:1;stroke:#4d4d4d;stroke-width:1.7;stroke-linecap:round;stroke-linejoin:round;stroke-miterlimit:4;stroke-opacity:1;stroke-dasharray:none"
       d="M 27,105.36218 C 138,-40.137817 196,29.362183 196,29.362183 242.5,109.86218 114.5,117.36218 114.5,117.36218 z"
       id="path2985"
       inkscape:connector-curvature="0" />
    <path
       style="fill:#b6ee5e;fill-opacity:1;stroke:#4d4d4d;stroke-width:1.70000005;stroke-linecap:round;stroke-linejoin:round;stroke-miterlimit:4;stroke-opacity:1;stroke-dasharray:none"
       d="m 130.10765,285.15133 c 47.0226,-65.05383 53.03301,-56.56854 53.03301,-56.56854 5.94345,-61.21756 13.08842,-88.95372 27.92926,-110.25558 19.11828,-29.381845 98.01686,-58.697644 79.90452,-37.529745 -18.03123,19.09188 -15.30453,66.452955 22.62741,96.873625 35.7089,28.63783 11.66727,49.14392 11.66727,49.14392 l -72.832,15.55635 30.05204,5.65685 c 0,0 31.11269,2.82843 30.40559,15.90991 -3.13563,14.21781 -13.92409,12.78979 -18.13797,20.48145 -2.35814,4.30435 -2.03957,4.76478 4.34939,19.11653 0,0 8.85264,4.72034 -6.76768,8.3976 -4.52414,1.06505 -4.32755,0.20893 -27.527,-1.68008 -37.79843,-6.01833 -53.73612,-12.0346 -85.20637,-25.1023 0,0 1.41422,1.41421 -6.71752,7.42462 -6.54552,4.838 -42.77995,-7.42461 -42.77995,-7.42461 z"
       id="path3779"
       inkscape:connector-curvature="0"
       sodipodi:nodetypes="ccccsccccscsccsc" />
    <path
       style="fill:#8c8481;fill-opacity:1;stroke:#4d4d4d;stroke-width:1.70000005;stroke-linecap:round;stroke-linejoin:round;stroke-miterlimit:4;stroke-opacity:1;stroke-dasharray:none"
       d="m 334.91443,447.29583 15.28852,-5.17313 c 0,0 79.01617,-22.17421 85.22047,-10.65221 6.20432,11.522 7.71058,27.23365 -0.49261,32.95272 -8.20317,5.71908 -148.65339,1.84801 -100.01638,-17.12738 z"
       id="path3801"
       inkscape:connector-curvature="0"
       sodipodi:nodetypes="ccssc" />
    <path
       style="fill:#b6ee5e;fill-opacity:1;stroke:#4d4d4d;stroke-width:1.70000005;stroke-linecap:round;stroke-linejoin:round;stroke-miterlimit:4;stroke-opacity:1;stroke-dasharray:none"
       d="m 84.783546,558.68543 c 47.022604,-65.05383 53.033014,-56.56854 53.033014,-56.56854 5.94345,-61.21755 13.08842,-88.95371 27.92926,-110.25557 19.11828,-29.38185 98.01686,-58.69765 79.90452,-37.52975 -18.03123,19.09188 -15.30453,66.45296 22.62741,96.87362 35.7089,28.63783 11.66727,49.14392 11.66727,49.14392 l -72.832,15.55635 30.05204,5.65685 c 0,0 31.11269,2.82843 30.40559,15.90991 -3.13563,14.21781 -13.92409,12.78979 -18.13797,20.48145 -2.35814,4.30435 -2.03957,4.76478 4.34939,19.11653 0,0 8.85264,4.72034 -6.76768,8.3976 -4.52414,1.06505 -4.32755,0.20893 -27.527,-1.68008 -37.79843,-6.01833 -53.73612,-12.0346 -85.20637,-25.1023 0,0 1.41422,1.41421 -6.71752,7.42462 -6.54552,4.838 -42.779954,-7.42461 -42.779954,-7.42461 z"
       id="path3779-6"
       inkscape:connector-curvature="0"
       sodipodi:nodetypes="ccccsccccscsccsc" />
    <path
       style="fill:#8c8481;fill-opacity:1;stroke:#4d4d4d;stroke-width:1.70000005;stroke-linecap:round;stroke-linejoin:round;stroke-miterlimit:4;stroke-opacity:1;stroke-dasharray:none"
       d="m 337.92329,530.73882 15.28852,-5.17313 c 0,0 79.01617,-22.17421 85.22047,-10.65221 6.20432,11.522 7.71058,27.23365 -0.49261,32.95272 -8.20317,5.71908 -148.65339,1.84801 -100.01638,-17.12738 z"
       id="path3801-4"
       inkscape:connector-curvature="0"
       sodipodi:nodetypes="ccssc" />
    <path
       style="fill:#c6ada7;fill-opacity:1;stroke:none"
       d="m 418.25366,514.25391 c 10.38699,-2.09646 14.94058,-0.58647 16.76859,0.43614 3.53646,4.19512 5.14092,9.29233 5.17898,11.19485 2.65865,7.20599 -0.22982,16.5077 -1.44147,12.41064 -1.4803,-8.33694 -3.35817,-9.8873 -4.37368,-12.42069 -1.24261,-3.09995 -4.05302,-5.85412 -6.01326,-7.47297 -3.16053,-2.54441 -10.11916,-4.14797 -10.11916,-4.14797 z"
       id="path3825"
       inkscape:connector-curvature="0"
       sodipodi:nodetypes="ccccscc" />
    <path
       style="fill:#715b56;fill-opacity:0.61643832;stroke:none"
       d="m 332.1917,533.74579 c 37.65456,-15.59315 82.00839,-20.90637 82.00839,-20.90637 0,0 4.38917,3.46514 6.69927,19.75132 1.83366,12.92724 -2.4256,16.63268 -2.4256,16.63268 0,0 -49.20504,2.88763 -84.66499,-6.69927 -10.82485,-2.92659 -1.61707,-8.77836 -1.61707,-8.77836 z"
       id="path3853"
       inkscape:connector-curvature="0"
       sodipodi:nodetypes="ccscsc" />
  </g>
</svg>
